<?xml version="1.0" standalone="no"?>
<!DOCTYPE svg PUBLIC "-//W3C//DTD SVG 20010904//EN"
 "http://www.w3.org/TR/2001/REC-SVG-20010904/DTD/svg10.dtd">
<svg version="1.0" xmlns="http://www.w3.org/2000/svg"
 width="496.000000pt" height="500.000000pt" viewBox="0 0 496.000000 500.000000"
 preserveAspectRatio="xMidYMid meet">
<metadata>
Created by potrace 1.16, written by Peter Selinger 2001-2019
</metadata>
<g transform="translate(0.000000,500.000000) scale(0.100000,-0.100000)"
fill="#000000" stroke="none">
<path d="M2430 4844 c-19 -2 -78 -9 -130 -15 -247 -28 -531 -115 -755 -232
-260 -136 -424 -254 -610 -441 -361 -362 -581 -798 -662 -1309 -25 -160 -25
-549 0 -702 118 -716 516 -1300 1137 -1672 386 -231 804 -336 1265 -320 369
14 637 79 950 232 485 237 856 604 1089 1079 101 205 149 358 212 666 26 130
32 514 9 674 -21 151 -81 390 -130 521 -298 795 -1021 1376 -1870 1501 -97 14
-435 26 -505 18z m439 -340 c340 -44 681 -186 966 -402 92 -70 259 -236 345
-343 214 -267 362 -596 414 -919 18 -110 31 -240 24 -240 -2 0 -33 36 -68 81
-193 245 -488 419 -807 474 -168 29 -404 14 -569 -36 -183 -56 -426 -204 -532
-324 -71 -81 -109 -105 -164 -105 -57 0 -143 27 -242 77 -247 123 -427 340
-498 600 -18 64 -21 107 -22 243 -1 150 2 174 26 262 92 328 296 544 586 619
150 39 312 42 541 13z m-1385 -375 c-81 -198 -109 -356 -101 -559 11 -272 93
-512 246 -717 172 -233 395 -382 695 -464 131 -36 165 -57 190 -119 40 -100
46 -423 11 -540 -62 -202 -189 -381 -360 -508 -194 -143 -464 -214 -700 -183
-181 24 -320 94 -450 226 -91 92 -152 179 -219 314 -173 345 -246 748 -205
1142 47 464 274 916 630 1253 96 91 254 215 276 216 7 0 3 -22 -13 -61z m2326
-1325 c266 -82 485 -273 606 -527 58 -123 77 -222 71 -362 -8 -186 -61 -333
-187 -522 -351 -522 -925 -866 -1525 -912 -279 -21 -571 13 -809 96 -107 37
-276 112 -276 122 0 3 47 14 104 23 268 44 521 174 722 373 152 151 244 303
312 515 71 222 73 489 6 713 -44 147 -32 188 86 284 167 137 353 219 525 232
129 9 266 -4 365 -35z"/>
<path d="M2435 3907 c-88 -41 -139 -119 -139 -212 2 -211 254 -307 393 -148
69 78 77 178 21 267 -43 67 -96 98 -178 103 -43 2 -78 -1 -97 -10z"/>
<path d="M1536 2046 c-54 -20 -85 -45 -121 -95 -27 -39 -30 -50 -30 -120 0
-68 3 -83 28 -119 44 -67 97 -96 182 -100 58 -3 80 0 112 17 165 84 165 318 0
402 -52 27 -123 33 -171 15z"/>
<path d="M3585 2176 c-61 -28 -87 -56 -116 -120 -41 -94 -4 -216 83 -273 50
-34 153 -44 208 -21 150 63 193 250 84 362 -74 77 -168 95 -259 52z"/>
</g>
</svg>
