<?xml version="1.0" standalone="no"?>
<!DOCTYPE svg PUBLIC "-//W3C//DTD SVG 20010904//EN"
 "http://www.w3.org/TR/2001/REC-SVG-20010904/DTD/svg10.dtd">
<svg version="1.0" xmlns="http://www.w3.org/2000/svg"
 width="348.000000pt" height="353.000000pt" viewBox="0 0 348.000000 353.000000"
 preserveAspectRatio="xMidYMid meet">
<metadata>
Created by potrace 1.16, written by Peter Selinger 2001-2019
</metadata>
<g transform="translate(0.000000,353.000000) scale(0.100000,-0.100000)"
fill="#000000" stroke="none">
<path d="M1557 3512 c-32 -39 77 -72 128 -38 14 9 26 11 32 5 11 -11 106 -15
122 -4 7 4 17 2 24 -3 7 -5 36 -12 65 -16 48 -6 53 -5 62 16 l9 23 0 -22 c1
-23 16 -29 111 -48 19 -4 77 -20 129 -36 88 -27 94 -28 107 -12 12 17 12 17
11 -1 -2 -23 64 -66 101 -66 12 0 22 -4 22 -9 0 -4 26 -22 58 -39 l57 -31 11
23 c6 12 8 28 6 34 -5 16 -76 52 -102 52 -11 0 -23 6 -26 14 -7 17 -75 46
-109 46 -14 0 -25 4 -25 10 0 15 -63 38 -192 71 -69 17 -128 27 -143 23 -14
-3 -25 -2 -25 4 0 5 -26 13 -57 17 -48 6 -59 4 -70 -11 -11 -16 -13 -16 -19
-1 -5 13 -19 17 -64 17 -33 0 -62 -5 -65 -10 -5 -8 -11 -8 -19 -1 -18 15 -125
9 -139 -7z"/>
<path d="M1470 3513 c-115 -18 -261 -59 -271 -76 -4 -5 -22 -10 -42 -12 -38
-2 -103 -36 -100 -52 1 -6 -8 -8 -20 -6 -26 5 -88 -19 -107 -41 -7 -9 -19 -16
-26 -16 -37 0 -273 -168 -281 -201 -3 -10 -13 -19 -22 -19 -9 0 -34 -18 -55
-39 -40 -41 -45 -73 -12 -79 24 -5 99 67 93 89 -3 11 1 15 12 12 9 -2 37 11
61 30 25 18 87 62 138 96 81 54 92 65 86 84 -6 21 -5 21 8 3 14 -18 16 -18 61
2 25 11 51 29 58 40 7 11 19 17 28 15 26 -7 95 22 107 45 8 16 13 19 22 10 8
-8 27 -7 74 6 35 9 106 25 158 35 85 16 95 20 98 41 2 12 -2 27 -10 31 -13 9
-16 9 -58 2z"/>
<path d="M1555 3364 c-11 -3 -65 -14 -121 -25 -585 -115 -1067 -571 -1220
-1157 -195 -748 153 -1525 835 -1863 210 -103 386 -148 622 -156 241 -8 416
18 615 92 594 223 1006 796 1031 1435 32 798 -495 1484 -1267 1651 -84 18
-143 23 -290 25 -102 1 -194 1 -205 -2z m1078 -680 l47 -7 0 -163 0 -164 -247
-2 -248 -3 -2 -55 c-2 -30 -10 -116 -18 -190 -20 -182 -24 -705 -5 -775 18
-71 43 -114 87 -157 71 -69 151 -85 229 -47 75 36 113 94 144 217 10 41 13 43
43 40 28 -3 32 -7 35 -35 11 -114 -72 -348 -159 -448 -94 -107 -150 -137 -269
-143 -79 -4 -89 -2 -140 25 -36 19 -72 50 -103 89 -115 141 -136 213 -144 489
-6 196 3 345 37 655 10 96 22 212 26 258 l7 82 -216 0 -215 0 -11 -77 c-6 -43
-22 -181 -36 -308 -14 -126 -34 -293 -44 -370 -11 -77 -23 -165 -26 -195 -4
-30 -19 -116 -35 -190 -15 -74 -31 -157 -34 -185 -10 -73 -46 -170 -77 -208
-39 -47 -132 -92 -186 -89 -110 4 -193 95 -193 209 1 65 25 113 106 210 124
148 157 207 184 331 30 138 116 832 106 858 -4 11 -31 14 -114 14 -171 0 -247
-33 -332 -142 -71 -93 -79 -100 -102 -96 -29 4 -27 32 8 102 14 28 39 84 55
124 39 98 65 136 145 213 109 104 149 123 274 130 152 8 1366 10 1423 3z"/>
<path d="M2616 3254 c-11 -28 -7 -33 67 -83 39 -27 96 -70 126 -96 60 -52 96
-57 96 -15 0 26 -64 84 -185 166 -69 47 -94 54 -104 28z"/>
<path d="M2907 3033 c-16 -15 -5 -41 31 -76 21 -20 46 -37 56 -37 12 0 16 -5
13 -14 -6 -15 57 -106 73 -106 6 0 10 -6 10 -13 0 -7 16 -37 37 -67 42 -62
143 -239 143 -250 0 -17 43 -110 51 -110 5 0 9 -13 9 -29 0 -31 17 -89 32
-108 8 -9 14 -9 29 0 23 14 25 54 4 103 -12 30 -19 35 -37 31 -22 -6 -22 -5
-5 8 17 12 18 18 7 52 -20 62 -38 85 -63 78 -19 -5 -20 -5 -4 5 9 6 17 18 17
27 0 32 -148 276 -174 286 -7 3 -20 0 -27 -6 -11 -10 -11 -9 0 5 7 9 10 25 7
35 -9 26 -64 83 -82 83 -7 0 -14 8 -14 18 0 10 -17 35 -38 55 -36 35 -61 45
-75 30z"/>
<path d="M331 2806 c-62 -84 -131 -201 -131 -223 0 -11 -9 -28 -20 -38 -22
-20 -45 -81 -41 -108 1 -9 -4 -20 -12 -23 -15 -5 -44 -89 -39 -112 2 -8 -3
-21 -11 -30 -22 -25 -59 -196 -62 -282 -1 -41 -6 -82 -9 -91 -4 -9 -6 -41 -4
-70 3 -50 5 -54 28 -54 21 0 25 6 32 45 10 54 3 90 -17 90 -9 0 -6 8 10 25 15
14 25 36 25 52 0 15 11 82 25 148 22 106 23 121 10 131 -19 14 -20 25 -2 18
18 -6 33 13 51 64 13 37 13 43 0 57 -14 13 -13 15 5 15 25 0 66 79 58 110 -3
13 0 20 8 20 8 0 33 33 56 73 23 39 62 100 86 134 47 66 52 96 16 101 -16 2
-31 -10 -62 -52z"/>
<path d="M3384 2206 c-17 -13 -17 -17 -1 -107 9 -52 20 -122 23 -157 4 -35 12
-69 19 -76 10 -9 10 -16 0 -29 -7 -9 -10 -36 -7 -64 4 -53 4 -62 -4 -150 -6
-62 -6 -63 20 -63 15 0 30 8 36 19 14 28 13 108 -2 114 -10 4 -10 7 0 18 19
20 16 125 -4 133 -15 6 -15 8 1 26 16 18 16 25 0 147 -23 173 -42 217 -81 189z"/>
<path d="M23 1603 c-8 -3 -13 -23 -13 -51 1 -59 54 -285 69 -290 6 -2 11 -19
11 -38 0 -50 25 -104 48 -104 35 0 44 23 27 70 -19 55 -32 70 -53 63 -13 -4
-12 -2 2 9 19 15 19 18 3 84 -9 38 -21 103 -28 144 -17 114 -26 130 -66 113z"/>
<path d="M3406 1542 c-2 -4 -10 -36 -16 -72 -7 -36 -24 -107 -37 -158 -14 -51
-24 -94 -22 -96 15 -13 48 -14 58 -2 17 21 71 243 71 294 0 38 -2 42 -24 42
-14 0 -27 -3 -30 -8z"/>
<path d="M3301 1147 c-12 -29 -19 -61 -15 -70 4 -11 1 -17 -8 -17 -18 0 -63
-93 -55 -114 4 -10 1 -16 -8 -16 -8 0 -35 -33 -61 -72 -26 -40 -67 -99 -91
-131 -47 -60 -52 -90 -17 -95 15 -2 32 10 57 40 61 75 147 211 147 234 0 12 7
24 15 27 20 8 58 86 52 108 -3 10 1 20 9 23 27 11 60 126 35 126 -5 0 -16 2
-24 6 -10 3 -21 -11 -36 -49z"/>
<path d="M173 1123 c4 -6 -2 -13 -13 -16 -11 -3 -20 -13 -20 -23 0 -24 39
-104 51 -104 5 0 9 -9 9 -20 0 -25 86 -170 142 -241 40 -51 57 -59 78 -34 10
12 -1 34 -62 127 -41 62 -82 126 -92 141 -12 20 -23 27 -37 24 -22 -6 -26 8
-5 16 11 5 13 13 7 35 -11 39 -38 89 -52 98 -7 4 -9 3 -6 -3z"/>
<path d="M2954 596 c-25 -25 -43 -49 -40 -54 3 -6 -5 -13 -18 -16 -33 -8 -98
-73 -94 -94 6 -33 48 -26 89 14 22 21 39 44 39 51 0 7 6 13 14 13 26 0 87 73
84 99 -5 39 -26 36 -74 -13z"/>
<path d="M522 558 c-7 -7 -12 -17 -12 -23 0 -20 75 -85 98 -85 14 0 20 -5 16
-14 -7 -18 84 -95 187 -156 89 -54 104 -58 113 -34 11 28 7 32 -65 79 -39 25
-100 68 -136 95 -36 27 -71 46 -79 43 -9 -3 -14 2 -14 15 0 18 -70 92 -88 92
-4 0 -13 -5 -20 -12z"/>
<path d="M2685 369 c-38 -28 -96 -64 -127 -81 -32 -17 -58 -37 -58 -45 0 -9
-6 -13 -15 -9 -24 9 -104 -31 -115 -56 -5 -13 -9 -17 -9 -10 -1 6 -9 12 -18
12 -20 0 -81 -20 -100 -33 -18 -12 -16 -44 4 -51 22 -9 110 21 117 41 4 9 13
13 22 9 24 -9 103 30 112 55 6 15 11 18 16 11 10 -17 57 5 170 78 105 68 131
92 123 115 -11 27 -50 15 -122 -36z"/>
<path d="M937 253 c-28 -27 30 -83 86 -83 16 0 36 -9 45 -20 16 -18 106 -49
116 -39 2 2 6 13 8 24 2 15 -8 26 -42 43 -25 13 -54 20 -66 17 -14 -3 -24 1
-27 10 -7 15 -78 55 -100 55 -7 0 -17 -3 -20 -7z"/>
<path d="M1204 135 c-11 -29 5 -44 70 -64 92 -28 232 -54 256 -46 13 4 20 15
20 30 0 26 -4 28 -85 40 -22 3 -84 17 -138 31 -115 28 -116 28 -123 9z"/>
<path d="M2159 125 c-3 -3 -71 -16 -150 -30 -79 -13 -144 -25 -144 -25 0 0 0
-11 0 -25 0 -35 26 -38 157 -15 154 26 193 40 193 71 0 18 -6 25 -25 27 -14 2
-28 0 -31 -3z"/>
<path d="M1567 74 c-4 -4 -7 -18 -7 -30 0 -24 17 -33 65 -34 17 0 74 0 128 0
l97 -1 0 31 c0 32 -6 35 -65 31 -54 -3 -75 -11 -76 -29 0 -13 -2 -13 -9 4 -4
12 -14 23 -22 26 -23 8 -103 10 -111 2z"/>
</g>
</svg>
