<?xml version="1.0" standalone="no"?>
<!DOCTYPE svg PUBLIC "-//W3C//DTD SVG 20010904//EN"
 "http://www.w3.org/TR/2001/REC-SVG-20010904/DTD/svg10.dtd">
<svg version="1.0" xmlns="http://www.w3.org/2000/svg"
 width="500.000000pt" height="500.000000pt" viewBox="0 0 500.000000 500.000000"
 preserveAspectRatio="xMidYMid meet">
<metadata>
Created by potrace 1.16, written by Peter Selinger 2001-2019
</metadata>
<g transform="translate(0.000000,500.000000) scale(0.100000,-0.100000)"
fill="#000000" stroke="none">
<path d="M873 3894 c-43 -15 -58 -28 -77 -68 -14 -31 -16 -165 -16 -1325 0
-1274 0 -1292 20 -1331 41 -81 -112 -74 1700 -74 1813 0 1659 -7 1700 74 20
39 20 57 20 1330 0 1273 0 1291 -20 1330 -41 81 111 74 -1690 75 -1172 0
-1613 -3 -1637 -11z m2468 -193 c74 -75 9 -196 -94 -177 -51 10 -82 48 -82
103 0 38 5 49 33 74 45 41 102 41 143 0z m314 6 c20 -17 28 -35 32 -70 5 -43
3 -49 -31 -83 -33 -33 -40 -36 -79 -31 -52 7 -97 52 -97 98 0 36 23 84 47 98
33 19 100 13 128 -12z m322 -12 c32 -32 35 -40 30 -76 -7 -50 -39 -87 -83 -95
-41 -8 -66 0 -98 33 -20 20 -26 36 -26 70 0 62 40 103 100 103 35 0 48 -6 77
-35z m31 -1376 l-3 -1032 -1495 -1 c-822 -1 -1501 0 -1507 2 -10 3 -13 219
-13 1033 l0 1029 1510 0 1510 0 -2 -1031z"/>
<path d="M2587 2723 c-19 -3 -32 -13 -39 -31 -13 -35 -258 -762 -258 -768 0
-3 34 -4 76 -2 l76 3 134 394 c74 217 133 395 132 397 -7 6 -96 11 -121 7z"/>
<path d="M1915 2470 l-220 -88 -6 -38 c-4 -22 -4 -59 0 -83 l6 -44 225 -88
c165 -66 226 -85 232 -76 10 15 10 108 0 123 -4 6 -78 35 -164 65 -87 30 -158
56 -158 59 0 3 69 29 153 59 83 30 158 61 165 69 18 23 13 134 -7 131 -3 -1
-105 -41 -226 -89z"/>
<path d="M2846 2545 c-3 -9 -6 -33 -6 -53 0 -77 -1 -76 171 -134 87 -29 159
-55 159 -58 0 -3 -68 -30 -152 -60 -83 -30 -158 -61 -166 -69 -10 -10 -13 -30
-10 -68 3 -29 7 -55 9 -58 3 -2 106 35 229 83 224 88 224 88 232 123 4 19 5
55 1 81 -6 54 19 39 -283 159 -85 34 -160 63 -166 66 -6 2 -14 -3 -18 -12z"/>
</g>
</svg>
